<svg width="68" height="61" viewBox="0 0 68 61" fill="none" xmlns="http://www.w3.org/2000/svg">
<path fill-rule="evenodd" clip-rule="evenodd" d="M63.3164 1.98394C50.5157 8.86044 42.8017 15.0617 36.4337 23.5947C32.5889 28.7467 28.6935 36.5652 26.8958 42.7379C26.6126 43.7102 26.3199 44.5059 26.2453 44.5059C26.1707 44.5059 25.2867 41.9143 24.2811 38.7468L22.4521 32.9877L19.8425 32.2566C18.4072 31.8544 17.009 31.4686 16.7355 31.3992L16.2379 31.2733L16.7884 33.2697C17.0914 34.368 17.5866 36.1604 17.8891 37.2534L18.4394 39.2405L17.0984 38.1555C15.8028 37.1072 14.4185 36.3393 10.6641 34.5868C8.70596 33.6728 6.97668 32.1899 6.73212 31.2153C6.10383 28.7122 8.70573 26.5839 11.8225 27.0512C13.1879 27.256 13.5931 27.4677 14.7511 28.5817L15.6915 29.4865L17.3177 27.6411C18.212 26.6261 18.9438 25.7068 18.9438 25.5982C18.9438 25.2658 16.9898 23.5771 16.0508 23.0982C14.2278 22.1681 12.639 21.8642 10.1879 21.9769C7.45827 22.1024 5.9163 22.5708 4.00474 23.855C1.35493 25.6353 0.0242077 28.3383 0.307097 31.3659C0.647249 35.0095 2.78489 37.1987 9.03972 40.3089C11.9252 41.7439 13.7699 43.2277 14.0464 44.3364C14.4386 45.9096 13.5545 47.6248 11.951 48.4014C9.36573 49.6531 5.82687 48.8047 4.14002 46.5286L3.36641 45.4849L1.59858 47.448C-0.0914578 49.3242 -0.156249 49.4366 0.130063 49.9931C0.937896 51.5629 3.67873 53.3195 6.12231 53.8333C7.87348 54.2017 11.7632 54.1504 13.3465 53.7379C16.8003 52.8384 19.552 50.244 20.1922 47.2842C20.2823 46.8676 20.3888 46.5596 20.4288 46.5998C20.4687 46.6401 21.2863 49.4964 22.2456 52.947C23.205 56.3976 24.042 59.4003 24.1059 59.62C24.1992 59.9414 24.4814 60.0192 25.5539 60.0192H26.8857L27.0418 58.8215C27.619 54.3858 29.0081 48.5052 30.6386 43.5934C31.7592 40.2181 31.8217 40.0935 32.0145 40.8557C33.1597 45.3838 34.4517 47.7639 37.033 50.1021C38.7498 51.6571 41.9227 53.2812 44.1529 53.7466C46.3015 54.1949 50.3279 54.1844 52.1049 53.7261C54.3244 53.1534 56.5241 51.8768 58.1925 50.1929C60.8158 47.5454 62.1794 44.1667 62.4438 39.658L62.5878 37.2055H55.4733H48.3591L48.4232 39.8861L48.4875 42.5668L52.2192 42.6295L55.9506 42.6925L55.7934 43.542C55.4366 45.47 54.2866 46.8537 52.2634 47.7897C51.3894 48.1942 50.7904 48.2702 48.4755 48.2702C45.7547 48.2702 45.707 48.261 43.9846 47.4096C40.0595 45.4693 38.0567 41.2 38.755 36.2622C39.5448 30.6765 43.5796 27.3503 49.1649 27.6801C51.7173 27.8307 53.324 28.4971 55.0522 30.1214L56.4461 31.4316L58.4551 29.9626C59.5602 29.1546 60.5279 28.3908 60.6055 28.2651C60.7978 27.9539 58.8443 25.9871 57.0863 24.7219C53.2289 21.9461 47.499 21.2061 42.6112 22.8528C41.8613 23.1053 41.215 23.2791 41.1748 23.239C40.9775 23.0417 45.6285 17.5999 48.253 14.9574C53.4431 9.73192 58.6695 5.69048 65.6982 1.46743C69.3614 -0.733632 67.7076 -0.375 63.3164 1.98394Z" fill="black"/>
</svg>
