<svg width="1440" height="1024" viewBox="0 0 1440 1024" fill="none" xmlns="http://www.w3.org/2000/svg">
<g clip-path="url(#clip0)">
<rect width="1440" height="1024" fill="black" fill-opacity="0.96"/>
<circle cx="1267.03" cy="325.032" r="93.7039" transform="rotate(-53.733 1267.03 325.032)" stroke="#DE5E06" stroke-opacity="0.24" stroke-width="5.79612"/>
<path d="M1213.36 269.149C1202.19 267.001 1190.21 283.304 1196.19 292.542C1202.18 301.781 1243.06 315.166 1246.43 315.556C1249.79 315.946 1255.5 311.142 1253.03 306.559C1250.55 301.975 1222.31 270.872 1213.36 269.149Z" stroke="#DE5E06" stroke-opacity="0.24" stroke-width="1.93204"/>
<path d="M1335.05 358.435C1340.45 368.44 1328.5 384.768 1317.89 381.828C1307.28 378.889 1282.24 343.909 1280.86 340.82C1279.48 337.73 1282.35 330.838 1287.46 331.822C1292.57 332.806 1330.72 350.415 1335.05 358.435Z" stroke="#DE5E06" stroke-opacity="0.24" stroke-width="1.93204"/>
<path d="M1211.12 378.711C1208.97 389.876 1225.28 401.863 1234.51 395.875C1243.75 389.886 1257.14 349.004 1257.53 345.643C1257.92 342.281 1253.11 336.568 1248.53 339.041C1243.95 341.515 1212.84 369.762 1211.12 378.711Z" stroke="#DE5E06" stroke-opacity="0.24" stroke-width="1.93204"/>
<path d="M1300.41 257.016C1310.41 251.615 1326.74 263.569 1323.8 274.179C1320.86 284.789 1285.88 309.827 1282.79 311.208C1279.7 312.589 1272.81 309.721 1273.79 304.607C1274.78 299.493 1292.39 261.345 1300.41 257.016Z" stroke="#DE5E06" stroke-opacity="0.24" stroke-width="1.93204"/>
<path d="M1270.67 247.244C1264.3 237.83 1244.29 240.882 1241.99 251.649C1239.7 262.416 1259.14 300.789 1261.24 303.441C1263.34 306.094 1270.78 306.737 1272.27 301.747C1273.76 296.757 1275.78 254.79 1270.67 247.244Z" stroke="#DE5E06" stroke-opacity="0.24" stroke-width="1.93204"/>
<path d="M1293.59 396.43C1290.33 407.323 1270.33 410.416 1264.91 400.835C1259.49 391.254 1266.52 348.815 1267.72 345.654C1268.93 342.493 1275.83 339.647 1278.75 343.959C1281.68 348.272 1296.2 387.698 1293.59 396.43Z" stroke="#DE5E06" stroke-opacity="0.24" stroke-width="1.93204"/>
<path d="M1191.62 323.134C1182.2 329.509 1185.26 349.514 1196.02 351.812C1206.79 354.11 1245.16 334.666 1247.82 332.565C1250.47 330.464 1251.11 323.027 1246.12 321.535C1241.13 320.044 1199.16 318.024 1191.62 323.134Z" stroke="#DE5E06" stroke-opacity="0.24" stroke-width="1.93204"/>
<path d="M1340.8 300.218C1351.7 303.474 1354.79 323.472 1345.21 328.896C1335.63 334.319 1293.19 327.29 1290.03 326.082C1286.87 324.874 1284.02 317.972 1288.33 315.052C1292.65 312.131 1332.07 297.608 1340.8 300.218Z" stroke="#DE5E06" stroke-opacity="0.24" stroke-width="1.93204"/>
<circle cx="1530.03" cy="715.032" r="93.7039" transform="rotate(-53.733 1530.03 715.032)" stroke="#DE5E06" stroke-opacity="0.24" stroke-width="5.79612"/>
<circle cx="1530.03" cy="547.032" r="93.7039" transform="rotate(-53.733 1530.03 547.032)" stroke="#DE5E06" stroke-opacity="0.24" stroke-width="5.79612"/>
<circle cx="991.032" cy="224.032" r="93.7039" transform="rotate(-53.733 991.032 224.032)" stroke="#DE5E06" stroke-opacity="0.24" stroke-width="5.79612"/>
<path d="M937.357 168.149C926.192 166.001 914.205 182.304 920.194 191.542C926.182 200.781 967.064 214.166 970.426 214.556C973.787 214.946 979.501 210.142 977.027 205.559C974.553 200.975 946.306 169.872 937.357 168.149Z" stroke="#DE5E06" stroke-opacity="0.24" stroke-width="1.93204"/>
<path d="M1059.05 257.435C1064.45 267.44 1052.5 283.768 1041.89 280.828C1031.28 277.889 1006.24 242.909 1004.86 239.82C1003.48 236.73 1006.35 229.838 1011.46 230.822C1016.57 231.806 1054.72 249.415 1059.05 257.435Z" stroke="#DE5E06" stroke-opacity="0.24" stroke-width="1.93204"/>
<path d="M935.121 277.711C932.972 288.876 949.275 300.863 958.514 294.875C967.752 288.886 981.137 248.004 981.527 244.643C981.918 241.281 977.113 235.568 972.53 238.041C967.947 240.515 936.843 268.762 935.121 277.711Z" stroke="#DE5E06" stroke-opacity="0.24" stroke-width="1.93204"/>
<path d="M1024.41 156.016C1034.41 150.615 1050.74 162.569 1047.8 173.179C1044.86 183.789 1009.88 208.827 1006.79 210.208C1003.7 211.589 996.81 208.721 997.794 203.607C998.778 198.493 1016.39 160.345 1024.41 156.016Z" stroke="#DE5E06" stroke-opacity="0.24" stroke-width="1.93204"/>
<path d="M994.671 146.244C988.296 136.83 968.292 139.882 965.994 150.649C963.695 161.416 983.139 199.789 985.24 202.441C987.341 205.094 994.778 205.737 996.27 200.747C997.761 195.757 999.782 153.79 994.671 146.244Z" stroke="#DE5E06" stroke-opacity="0.24" stroke-width="1.93204"/>
<path d="M1017.59 295.43C1014.33 306.323 994.334 309.416 988.911 299.835C983.487 290.254 990.517 247.815 991.725 244.654C992.933 241.493 999.834 238.647 1002.75 242.959C1005.68 247.272 1020.2 286.698 1017.59 295.43Z" stroke="#DE5E06" stroke-opacity="0.24" stroke-width="1.93204"/>
<path d="M915.618 222.134C906.204 228.509 909.256 248.514 920.023 250.812C930.79 253.11 969.163 233.666 971.815 231.565C974.468 229.464 975.111 222.027 970.121 220.535C965.131 219.044 923.164 217.024 915.618 222.134Z" stroke="#DE5E06" stroke-opacity="0.24" stroke-width="1.93204"/>
<path d="M1064.8 199.218C1075.7 202.474 1078.79 222.472 1069.21 227.896C1059.63 233.319 1017.19 226.29 1014.03 225.082C1010.87 223.874 1008.02 216.972 1012.33 214.052C1016.65 211.131 1056.07 196.608 1064.8 199.218Z" stroke="#DE5E06" stroke-opacity="0.24" stroke-width="1.93204"/>
<circle cx="1467.03" cy="866.032" r="93.7039" transform="rotate(-53.733 1467.03 866.032)" stroke="#DE5E06" stroke-opacity="0.24" stroke-width="5.79612"/>
<path d="M1413.36 810.149C1402.19 808.001 1390.21 824.304 1396.19 833.542C1402.18 842.781 1443.06 856.166 1446.43 856.556C1449.79 856.946 1455.5 852.142 1453.03 847.559C1450.55 842.975 1422.31 811.872 1413.36 810.149Z" stroke="#DE5E06" stroke-opacity="0.24" stroke-width="1.93204"/>
<path d="M1411.12 919.711C1408.97 930.876 1425.28 942.863 1434.51 936.875C1443.75 930.886 1457.14 890.004 1457.53 886.643C1457.92 883.281 1453.11 877.568 1448.53 880.041C1443.95 882.515 1412.84 910.762 1411.12 919.711Z" stroke="#DE5E06" stroke-opacity="0.24" stroke-width="1.93204"/>
<path d="M1470.67 788.244C1464.3 778.83 1444.29 781.882 1441.99 792.649C1439.7 803.416 1459.14 841.789 1461.24 844.441C1463.34 847.094 1470.78 847.737 1472.27 842.747C1473.76 837.757 1475.78 795.79 1470.67 788.244Z" stroke="#DE5E06" stroke-opacity="0.24" stroke-width="1.93204"/>
<path d="M1391.62 864.134C1382.2 870.509 1385.26 890.514 1396.02 892.812C1406.79 895.11 1445.16 875.666 1447.82 873.565C1450.47 871.464 1451.11 864.027 1446.12 862.535C1441.13 861.044 1399.16 859.024 1391.62 864.134Z" stroke="#DE5E06" stroke-opacity="0.24" stroke-width="1.93204"/>
<circle cx="869.032" cy="53.032" r="93.7039" transform="rotate(-53.733 869.032 53.032)" stroke="#DE5E06" stroke-opacity="0.24" stroke-width="5.79612"/>
<path d="M815.357 -2.85078C804.192 -4.99949 792.205 11.3041 798.194 20.5424C804.182 29.7807 845.064 43.166 848.426 43.556C851.787 43.9461 857.501 39.1416 855.027 34.5585C852.553 29.9754 824.306 -1.12842 815.357 -2.85078Z" stroke="#DE5E06" stroke-opacity="0.24" stroke-width="1.93204"/>
<path d="M937.052 86.4352C942.452 96.4404 930.498 112.768 919.889 109.828C909.279 106.889 884.24 71.9091 882.859 68.8198C881.478 65.7304 884.346 58.8382 889.461 59.8222C894.575 60.8063 932.723 78.4154 937.052 86.4352Z" stroke="#DE5E06" stroke-opacity="0.24" stroke-width="1.93204"/>
<path d="M813.121 106.711C810.972 117.876 827.275 129.863 836.514 123.875C845.752 117.886 859.137 77.0041 859.527 73.6427C859.918 70.2813 855.113 64.5677 850.53 67.0413C845.947 69.515 814.843 97.7619 813.121 106.711Z" stroke="#DE5E06" stroke-opacity="0.24" stroke-width="1.93204"/>
<path d="M902.407 -14.9841C912.412 -20.3848 928.74 -8.43065 925.8 2.17911C922.861 12.7889 887.881 37.8273 884.791 39.2083C881.702 40.5893 874.81 37.7212 875.794 32.6069C876.778 27.4927 894.387 -10.6551 902.407 -14.9841Z" stroke="#DE5E06" stroke-opacity="0.24" stroke-width="1.93204"/>
<path d="M872.671 -24.7562C866.296 -34.1703 846.292 -31.1179 843.994 -20.351C841.695 -9.58407 861.139 28.7887 863.24 31.4414C865.341 34.0941 872.778 34.7369 874.27 29.7471C875.761 24.7572 877.782 -17.2101 872.671 -24.7562Z" stroke="#DE5E06" stroke-opacity="0.24" stroke-width="1.93204"/>
<path d="M895.588 124.43C892.333 135.323 872.334 138.416 866.911 128.835C861.487 119.254 868.517 76.8148 869.725 73.6538C870.933 70.4928 877.834 67.6473 880.755 71.9595C883.675 76.2716 898.198 115.698 895.588 124.43Z" stroke="#DE5E06" stroke-opacity="0.24" stroke-width="1.93204"/>
<path d="M793.618 51.1339C784.204 57.5093 787.256 77.5136 798.023 79.8116C808.79 82.1097 847.163 62.6665 849.815 60.5654C852.468 58.4643 853.111 51.0269 848.121 49.5353C843.131 48.0438 801.164 46.0236 793.618 51.1339Z" stroke="#DE5E06" stroke-opacity="0.24" stroke-width="1.93204"/>
<path d="M942.804 28.218C953.698 31.4739 956.79 51.472 947.209 56.8957C937.628 62.3194 895.189 55.2899 892.028 54.0818C888.867 52.8738 886.022 45.9722 890.334 43.0518C894.646 40.1313 934.072 25.6082 942.804 28.218Z" stroke="#DE5E06" stroke-opacity="0.24" stroke-width="1.93204"/>
<circle cx="1126.03" cy="24.032" r="93.7039" transform="rotate(-53.733 1126.03 24.032)" stroke="#DE5E06" stroke-opacity="0.24" stroke-width="5.79612"/>
<path d="M1072.36 -31.8508C1061.19 -33.9995 1049.21 -17.6959 1055.19 -8.45761C1061.18 0.780724 1102.06 14.166 1105.43 14.556C1108.79 14.9461 1114.5 10.1416 1112.03 5.5585C1109.55 0.975436 1081.31 -30.1284 1072.36 -31.8508Z" stroke="#DE5E06" stroke-opacity="0.24" stroke-width="1.93204"/>
<path d="M1194.05 57.4352C1199.45 67.4404 1187.5 83.7679 1176.89 80.8284C1166.28 77.8889 1141.24 42.9091 1139.86 39.8198C1138.48 36.7304 1141.35 29.8382 1146.46 30.8222C1151.57 31.8063 1189.72 49.4154 1194.05 57.4352Z" stroke="#DE5E06" stroke-opacity="0.24" stroke-width="1.93204"/>
<path d="M1070.12 77.7113C1067.97 88.8761 1084.28 100.863 1093.51 94.8746C1102.75 88.8862 1116.14 48.0041 1116.53 44.6427C1116.92 41.2813 1112.11 35.5677 1107.53 38.0413C1102.95 40.515 1071.84 68.7619 1070.12 77.7113Z" stroke="#DE5E06" stroke-opacity="0.24" stroke-width="1.93204"/>
<path d="M1159.41 -43.9841C1169.41 -49.3848 1185.74 -37.4306 1182.8 -26.8209C1179.86 -16.2111 1144.88 8.82732 1141.79 10.2083C1138.7 11.5893 1131.81 8.72116 1132.79 3.60694C1133.78 -1.50727 1151.39 -39.6551 1159.41 -43.9841Z" stroke="#DE5E06" stroke-opacity="0.24" stroke-width="1.93204"/>
<path d="M1129.67 -53.7562C1123.3 -63.1703 1103.29 -60.1179 1100.99 -49.351C1098.7 -38.5841 1118.14 -0.211306 1120.24 2.4414C1122.34 5.09411 1129.78 5.73693 1131.27 0.747064C1132.76 -4.2428 1134.78 -46.2101 1129.67 -53.7562Z" stroke="#DE5E06" stroke-opacity="0.24" stroke-width="1.93204"/>
<path d="M1152.59 95.4297C1149.33 106.323 1129.33 109.416 1123.91 99.8349C1118.49 90.2541 1125.52 47.8148 1126.72 44.6538C1127.93 41.4928 1134.83 38.6473 1137.75 42.9595C1140.68 47.2716 1155.2 86.6977 1152.59 95.4297Z" stroke="#DE5E06" stroke-opacity="0.24" stroke-width="1.93204"/>
<path d="M1050.62 22.1339C1041.2 28.5093 1044.26 48.5136 1055.02 50.8116C1065.79 53.1097 1104.16 33.6665 1106.82 31.5654C1109.47 29.4643 1110.11 22.0269 1105.12 20.5353C1100.13 19.0438 1058.16 17.0236 1050.62 22.1339Z" stroke="#DE5E06" stroke-opacity="0.24" stroke-width="1.93204"/>
<path d="M1199.8 -0.781983C1210.7 2.47388 1213.79 22.472 1204.21 27.8957C1194.63 33.3194 1152.19 26.2899 1149.03 25.0818C1145.87 23.8738 1143.02 16.9722 1147.33 14.0518C1151.65 11.1313 1191.07 -3.39181 1199.8 -0.781983Z" stroke="#DE5E06" stroke-opacity="0.24" stroke-width="1.93204"/>
<path d="M1004.05 -13.565C1009.45 -3.55986 997.498 12.7677 986.889 9.82816C976.279 6.88865 951.24 -28.0911 949.859 -31.1805C948.478 -34.2699 951.346 -41.1621 956.461 -40.178C961.575 -39.1939 999.723 -21.5849 1004.05 -13.565Z" stroke="#DE5E06" stroke-opacity="0.24" stroke-width="1.93204"/>
<path d="M880.121 6.7111C877.972 17.8759 894.275 29.8627 903.514 23.8743C912.752 17.8859 926.137 -22.9961 926.527 -26.3575C926.918 -29.719 922.113 -35.4326 917.53 -32.9589C912.947 -30.4852 881.843 -2.23835 880.121 6.7111Z" stroke="#DE5E06" stroke-opacity="0.24" stroke-width="1.93204"/>
<path d="M962.588 24.4294C959.333 35.323 939.334 38.4154 933.911 28.8346C928.487 19.2539 935.517 -23.1854 936.725 -26.3464C937.933 -29.5075 944.834 -32.3529 947.755 -28.0408C950.675 -23.7286 965.198 15.6974 962.588 24.4294Z" stroke="#DE5E06" stroke-opacity="0.24" stroke-width="1.93204"/>
<circle cx="667.032" cy="822.032" r="93.7039" transform="rotate(-53.733 667.032 822.032)" stroke="#DE5E06" stroke-opacity="0.24" stroke-width="5.79612"/>
<path d="M613.357 766.149C602.192 764.001 590.205 780.304 596.194 789.542C602.182 798.781 643.064 812.166 646.425 812.556C649.787 812.946 655.501 808.142 653.027 803.559C650.553 798.975 622.306 767.872 613.357 766.149Z" stroke="#DE5E06" stroke-opacity="0.24" stroke-width="1.93204"/>
<path d="M735.052 855.435C740.452 865.44 728.498 881.768 717.889 878.828C707.279 875.889 682.24 840.909 680.859 837.82C679.478 834.73 682.346 827.838 687.461 828.822C692.575 829.806 730.723 847.415 735.052 855.435Z" stroke="#DE5E06" stroke-opacity="0.24" stroke-width="1.93204"/>
<path d="M611.121 875.711C608.972 886.876 625.275 898.863 634.514 892.875C643.752 886.886 657.137 846.004 657.527 842.643C657.918 839.281 653.113 833.568 648.53 836.041C643.947 838.515 612.843 866.762 611.121 875.711Z" stroke="#DE5E06" stroke-opacity="0.24" stroke-width="1.93204"/>
<path d="M700.407 754.016C710.412 748.615 726.74 760.569 723.8 771.179C720.861 781.789 685.881 806.827 682.791 808.208C679.702 809.589 672.81 806.721 673.794 801.607C674.778 796.493 692.387 758.345 700.407 754.016Z" stroke="#DE5E06" stroke-opacity="0.24" stroke-width="1.93204"/>
<path d="M670.671 744.244C664.296 734.83 644.292 737.882 641.994 748.649C639.695 759.416 659.139 797.789 661.24 800.441C663.341 803.094 670.778 803.737 672.27 798.747C673.761 793.757 675.782 751.79 670.671 744.244Z" stroke="#DE5E06" stroke-opacity="0.24" stroke-width="1.93204"/>
<path d="M693.588 893.43C690.333 904.323 670.334 907.416 664.911 897.835C659.487 888.254 666.517 845.815 667.725 842.654C668.933 839.493 675.834 836.647 678.755 840.959C681.675 845.272 696.198 884.698 693.588 893.43Z" stroke="#DE5E06" stroke-opacity="0.24" stroke-width="1.93204"/>
<path d="M591.618 820.134C582.204 826.509 585.256 846.514 596.023 848.812C606.79 851.11 645.163 831.666 647.815 829.565C650.468 827.464 651.111 820.027 646.121 818.535C641.131 817.044 599.164 815.024 591.618 820.134Z" stroke="#DE5E06" stroke-opacity="0.24" stroke-width="1.93204"/>
<path d="M740.804 797.218C751.698 800.474 754.79 820.472 745.209 825.896C735.628 831.319 693.189 824.29 690.028 823.082C686.867 821.874 684.022 814.972 688.334 812.052C692.646 809.131 732.072 794.608 740.804 797.218Z" stroke="#DE5E06" stroke-opacity="0.24" stroke-width="1.93204"/>
<circle cx="950.032" cy="485.032" r="93.7039" transform="rotate(-53.733 950.032 485.032)" stroke="#DE5E06" stroke-opacity="0.24" stroke-width="5.79612"/>
<path d="M896.357 429.149C885.192 427.001 873.205 443.304 879.194 452.542C885.182 461.781 926.064 475.166 929.426 475.556C932.787 475.946 938.501 471.142 936.027 466.559C933.553 461.975 905.306 430.872 896.357 429.149Z" stroke="#DE5E06" stroke-opacity="0.24" stroke-width="1.93204"/>
<path d="M1018.05 518.435C1023.45 528.44 1011.5 544.768 1000.89 541.828C990.279 538.889 965.24 503.909 963.859 500.82C962.478 497.73 965.346 490.838 970.461 491.822C975.575 492.806 1013.72 510.415 1018.05 518.435Z" stroke="#DE5E06" stroke-opacity="0.24" stroke-width="1.93204"/>
<path d="M894.121 538.711C891.972 549.876 908.275 561.863 917.514 555.875C926.752 549.886 940.137 509.004 940.527 505.643C940.918 502.281 936.113 496.568 931.53 499.041C926.947 501.515 895.843 529.762 894.121 538.711Z" stroke="#DE5E06" stroke-opacity="0.24" stroke-width="1.93204"/>
<path d="M983.407 417.016C993.412 411.615 1009.74 423.569 1006.8 434.179C1003.86 444.789 968.881 469.827 965.791 471.208C962.702 472.589 955.81 469.721 956.794 464.607C957.778 459.493 975.387 421.345 983.407 417.016Z" stroke="#DE5E06" stroke-opacity="0.24" stroke-width="1.93204"/>
<path d="M953.671 407.244C947.296 397.83 927.292 400.882 924.994 411.649C922.695 422.416 942.139 460.789 944.24 463.441C946.341 466.094 953.778 466.737 955.27 461.747C956.761 456.757 958.782 414.79 953.671 407.244Z" stroke="#DE5E06" stroke-opacity="0.24" stroke-width="1.93204"/>
<path d="M976.588 556.43C973.333 567.323 953.334 570.416 947.911 560.835C942.487 551.254 949.517 508.815 950.725 505.654C951.933 502.493 958.834 499.647 961.755 503.959C964.675 508.272 979.198 547.698 976.588 556.43Z" stroke="#DE5E06" stroke-opacity="0.24" stroke-width="1.93204"/>
<path d="M874.618 483.134C865.204 489.509 868.256 509.514 879.023 511.812C889.79 514.11 928.163 494.666 930.815 492.565C933.468 490.464 934.111 483.027 929.121 481.535C924.131 480.044 882.164 478.024 874.618 483.134Z" stroke="#DE5E06" stroke-opacity="0.24" stroke-width="1.93204"/>
<path d="M1023.8 460.218C1034.7 463.474 1037.79 483.472 1028.21 488.896C1018.63 494.319 976.189 487.29 973.028 486.082C969.867 484.874 967.022 477.972 971.334 475.052C975.646 472.131 1015.07 457.608 1023.8 460.218Z" stroke="#DE5E06" stroke-opacity="0.24" stroke-width="1.93204"/>
<circle cx="991.032" cy="715.032" r="93.7039" transform="rotate(-53.733 991.032 715.032)" stroke="#DE5E06" stroke-opacity="0.24" stroke-width="5.79612"/>
<path d="M937.357 659.149C926.192 657.001 914.205 673.304 920.194 682.542C926.182 691.781 967.064 705.166 970.426 705.556C973.787 705.946 979.501 701.142 977.027 696.559C974.553 691.975 946.306 660.872 937.357 659.149Z" stroke="#DE5E06" stroke-opacity="0.24" stroke-width="1.93204"/>
<path d="M1059.05 748.435C1064.45 758.44 1052.5 774.768 1041.89 771.828C1031.28 768.889 1006.24 733.909 1004.86 730.82C1003.48 727.73 1006.35 720.838 1011.46 721.822C1016.57 722.806 1054.72 740.415 1059.05 748.435Z" stroke="#DE5E06" stroke-opacity="0.24" stroke-width="1.93204"/>
<path d="M935.121 768.711C932.972 779.876 949.275 791.863 958.514 785.875C967.752 779.886 981.137 739.004 981.527 735.643C981.918 732.281 977.113 726.568 972.53 729.041C967.947 731.515 936.843 759.762 935.121 768.711Z" stroke="#DE5E06" stroke-opacity="0.24" stroke-width="1.93204"/>
<path d="M1024.41 647.016C1034.41 641.615 1050.74 653.569 1047.8 664.179C1044.86 674.789 1009.88 699.827 1006.79 701.208C1003.7 702.589 996.81 699.721 997.794 694.607C998.778 689.493 1016.39 651.345 1024.41 647.016Z" stroke="#DE5E06" stroke-opacity="0.24" stroke-width="1.93204"/>
<path d="M994.671 637.244C988.296 627.83 968.292 630.882 965.994 641.649C963.695 652.416 983.139 690.789 985.24 693.441C987.341 696.094 994.778 696.737 996.27 691.747C997.761 686.757 999.782 644.79 994.671 637.244Z" stroke="#DE5E06" stroke-opacity="0.24" stroke-width="1.93204"/>
<path d="M1017.59 786.43C1014.33 797.323 994.334 800.416 988.911 790.835C983.487 781.254 990.517 738.815 991.725 735.654C992.933 732.493 999.834 729.647 1002.75 733.959C1005.68 738.272 1020.2 777.698 1017.59 786.43Z" stroke="#DE5E06" stroke-opacity="0.24" stroke-width="1.93204"/>
<path d="M915.618 713.134C906.204 719.509 909.256 739.514 920.023 741.812C930.79 744.11 969.163 724.666 971.815 722.565C974.468 720.464 975.111 713.027 970.121 711.535C965.131 710.044 923.164 708.024 915.618 713.134Z" stroke="#DE5E06" stroke-opacity="0.24" stroke-width="1.93204"/>
<path d="M1064.8 690.218C1075.7 693.474 1078.79 713.472 1069.21 718.896C1059.63 724.319 1017.19 717.29 1014.03 716.082C1010.87 714.874 1008.02 707.972 1012.33 705.052C1016.65 702.131 1056.07 687.608 1064.8 690.218Z" stroke="#DE5E06" stroke-opacity="0.24" stroke-width="1.93204"/>
<circle cx="604.032" cy="590.032" r="93.7039" transform="rotate(-53.733 604.032 590.032)" stroke="#DE5E06" stroke-opacity="0.24" stroke-width="5.79612"/>
<path d="M550.357 534.149C539.192 532.001 527.205 548.304 533.194 557.542C539.182 566.781 580.064 580.166 583.425 580.556C586.787 580.946 592.501 576.142 590.027 571.559C587.553 566.975 559.306 535.872 550.357 534.149Z" stroke="#DE5E06" stroke-opacity="0.24" stroke-width="1.93204"/>
<path d="M672.052 623.435C677.452 633.44 665.498 649.768 654.889 646.828C644.279 643.889 619.24 608.909 617.859 605.82C616.478 602.73 619.346 595.838 624.461 596.822C629.575 597.806 667.723 615.415 672.052 623.435Z" stroke="#DE5E06" stroke-opacity="0.24" stroke-width="1.93204"/>
<path d="M548.121 643.711C545.972 654.876 562.275 666.863 571.514 660.875C580.752 654.886 594.137 614.004 594.527 610.643C594.918 607.281 590.113 601.568 585.53 604.041C580.947 606.515 549.843 634.762 548.121 643.711Z" stroke="#DE5E06" stroke-opacity="0.24" stroke-width="1.93204"/>
<path d="M637.407 522.016C647.412 516.615 663.74 528.569 660.8 539.179C657.861 549.789 622.881 574.827 619.791 576.208C616.702 577.589 609.81 574.721 610.794 569.607C611.778 564.493 629.387 526.345 637.407 522.016Z" stroke="#DE5E06" stroke-opacity="0.24" stroke-width="1.93204"/>
<path d="M607.671 512.244C601.296 502.83 581.292 505.882 578.994 516.649C576.695 527.416 596.139 565.789 598.24 568.441C600.341 571.094 607.778 571.737 609.27 566.747C610.761 561.757 612.782 519.79 607.671 512.244Z" stroke="#DE5E06" stroke-opacity="0.24" stroke-width="1.93204"/>
<path d="M630.588 661.43C627.333 672.323 607.334 675.416 601.911 665.835C596.487 656.254 603.517 613.815 604.725 610.654C605.933 607.493 612.834 604.647 615.755 608.959C618.675 613.272 633.198 652.698 630.588 661.43Z" stroke="#DE5E06" stroke-opacity="0.24" stroke-width="1.93204"/>
<path d="M528.618 588.134C519.204 594.509 522.256 614.514 533.023 616.812C543.79 619.11 582.163 599.666 584.815 597.565C587.468 595.464 588.111 588.027 583.121 586.535C578.131 585.044 536.164 583.024 528.618 588.134Z" stroke="#DE5E06" stroke-opacity="0.24" stroke-width="1.93204"/>
<path d="M677.804 565.218C688.698 568.474 691.79 588.472 682.209 593.896C672.628 599.319 630.189 592.29 627.028 591.082C623.867 589.874 621.022 582.972 625.334 580.052C629.646 577.131 669.072 562.608 677.804 565.218Z" stroke="#DE5E06" stroke-opacity="0.24" stroke-width="1.93204"/>
<circle cx="615.032" cy="76.032" r="93.7039" transform="rotate(-53.733 615.032 76.032)" stroke="#DE5E06" stroke-opacity="0.24" stroke-width="5.79612"/>
<path d="M561.357 20.1492C550.192 18.0005 538.205 34.3041 544.194 43.5424C550.182 52.7807 591.064 66.166 594.425 66.556C597.787 66.9461 603.501 62.1416 601.027 57.5585C598.553 52.9754 570.306 21.8716 561.357 20.1492Z" stroke="#DE5E06" stroke-opacity="0.24" stroke-width="1.93204"/>
<path d="M683.052 109.435C688.452 119.44 676.498 135.768 665.889 132.828C655.279 129.889 630.24 94.9091 628.859 91.8198C627.478 88.7304 630.346 81.8382 635.461 82.8222C640.575 83.8063 678.723 101.415 683.052 109.435Z" stroke="#DE5E06" stroke-opacity="0.24" stroke-width="1.93204"/>
<path d="M559.121 129.711C556.972 140.876 573.275 152.863 582.514 146.875C591.752 140.886 605.137 100.004 605.527 96.6427C605.918 93.2813 601.113 87.5677 596.53 90.0413C591.947 92.515 560.843 120.762 559.121 129.711Z" stroke="#DE5E06" stroke-opacity="0.24" stroke-width="1.93204"/>
<path d="M648.407 8.01585C658.412 2.6152 674.74 14.5694 671.8 25.1791C668.861 35.7889 633.881 60.8273 630.791 62.2083C627.702 63.5893 620.81 60.7212 621.794 55.6069C622.778 50.4927 640.387 12.3449 648.407 8.01585Z" stroke="#DE5E06" stroke-opacity="0.24" stroke-width="1.93204"/>
<path d="M618.671 -1.75622C612.296 -11.1703 592.292 -8.11792 589.994 2.649C587.695 13.4159 607.139 51.7887 609.24 54.4414C611.341 57.0941 618.778 57.7369 620.27 52.7471C621.761 47.7572 623.782 5.78988 618.671 -1.75622Z" stroke="#DE5E06" stroke-opacity="0.24" stroke-width="1.93204"/>
<path d="M641.588 147.43C638.333 158.323 618.334 161.416 612.911 151.835C607.487 142.254 614.517 99.8148 615.725 96.6538C616.933 93.4928 623.834 90.6473 626.755 94.9595C629.675 99.2716 644.198 138.698 641.588 147.43Z" stroke="#DE5E06" stroke-opacity="0.24" stroke-width="1.93204"/>
<path d="M539.618 74.1339C530.204 80.5093 533.256 100.514 544.023 102.812C554.79 105.11 593.163 85.6665 595.815 83.5654C598.468 81.4643 599.111 74.0269 594.121 72.5353C589.131 71.0438 547.164 69.0236 539.618 74.1339Z" stroke="#DE5E06" stroke-opacity="0.24" stroke-width="1.93204"/>
<path d="M688.804 51.218C699.698 54.4739 702.79 74.472 693.209 79.8957C683.628 85.3194 641.189 78.2899 638.028 77.0818C634.867 75.8738 632.022 68.9722 636.334 66.0518C640.646 63.1313 680.072 48.6082 688.804 51.218Z" stroke="#DE5E06" stroke-opacity="0.24" stroke-width="1.93204"/>
<circle cx="1302.03" cy="725.032" r="93.7039" transform="rotate(-53.733 1302.03 725.032)" stroke="#DE5E06" stroke-opacity="0.24" stroke-width="5.79612"/>
<path d="M1248.36 669.149C1237.19 667.001 1225.21 683.304 1231.19 692.542C1237.18 701.781 1278.06 715.166 1281.43 715.556C1284.79 715.946 1290.5 711.142 1288.03 706.559C1285.55 701.975 1257.31 670.872 1248.36 669.149Z" stroke="#DE5E06" stroke-opacity="0.24" stroke-width="1.93204"/>
<path d="M1370.05 758.435C1375.45 768.44 1363.5 784.768 1352.89 781.828C1342.28 778.889 1317.24 743.909 1315.86 740.82C1314.48 737.73 1317.35 730.838 1322.46 731.822C1327.57 732.806 1365.72 750.415 1370.05 758.435Z" stroke="#DE5E06" stroke-opacity="0.24" stroke-width="1.93204"/>
<path d="M1246.12 778.711C1243.97 789.876 1260.28 801.863 1269.51 795.875C1278.75 789.886 1292.14 749.004 1292.53 745.643C1292.92 742.281 1288.11 736.568 1283.53 739.041C1278.95 741.515 1247.84 769.762 1246.12 778.711Z" stroke="#DE5E06" stroke-opacity="0.24" stroke-width="1.93204"/>
<path d="M1335.41 657.016C1345.41 651.615 1361.74 663.569 1358.8 674.179C1355.86 684.789 1320.88 709.827 1317.79 711.208C1314.7 712.589 1307.81 709.721 1308.79 704.607C1309.78 699.493 1327.39 661.345 1335.41 657.016Z" stroke="#DE5E06" stroke-opacity="0.24" stroke-width="1.93204"/>
<path d="M1305.67 647.244C1299.3 637.83 1279.29 640.882 1276.99 651.649C1274.7 662.416 1294.14 700.789 1296.24 703.441C1298.34 706.094 1305.78 706.737 1307.27 701.747C1308.76 696.757 1310.78 654.79 1305.67 647.244Z" stroke="#DE5E06" stroke-opacity="0.24" stroke-width="1.93204"/>
<path d="M1328.59 796.43C1325.33 807.323 1305.33 810.416 1299.91 800.835C1294.49 791.254 1301.52 748.815 1302.72 745.654C1303.93 742.493 1310.83 739.647 1313.75 743.959C1316.68 748.272 1331.2 787.698 1328.59 796.43Z" stroke="#DE5E06" stroke-opacity="0.24" stroke-width="1.93204"/>
<path d="M1226.62 723.134C1217.2 729.509 1220.26 749.514 1231.02 751.812C1241.79 754.11 1280.16 734.666 1282.82 732.565C1285.47 730.464 1286.11 723.027 1281.12 721.535C1276.13 720.044 1234.16 718.024 1226.62 723.134Z" stroke="#DE5E06" stroke-opacity="0.24" stroke-width="1.93204"/>
<path d="M1375.8 700.218C1386.7 703.474 1389.79 723.472 1380.21 728.896C1370.63 734.319 1328.19 727.29 1325.03 726.082C1321.87 724.874 1319.02 717.972 1323.33 715.052C1327.65 712.131 1367.07 697.608 1375.8 700.218Z" stroke="#DE5E06" stroke-opacity="0.24" stroke-width="1.93204"/>
<circle cx="337.032" cy="702.032" r="93.7039" transform="rotate(-53.733 337.032 702.032)" stroke="#DE5E06" stroke-opacity="0.24" stroke-width="5.79612"/>
<path d="M283.357 646.149C272.192 644.001 260.205 660.304 266.194 669.542C272.182 678.781 313.064 692.166 316.425 692.556C319.787 692.946 325.501 688.142 323.027 683.559C320.553 678.975 292.306 647.872 283.357 646.149Z" stroke="#DE5E06" stroke-opacity="0.24" stroke-width="1.93204"/>
<path d="M405.052 735.435C410.452 745.44 398.498 761.768 387.888 758.828C377.279 755.889 352.24 720.909 350.859 717.82C349.478 714.73 352.346 707.838 357.461 708.822C362.575 709.806 400.723 727.415 405.052 735.435Z" stroke="#DE5E06" stroke-opacity="0.24" stroke-width="1.93204"/>
<path d="M281.121 755.711C278.972 766.876 295.275 778.863 304.514 772.875C313.752 766.886 327.137 726.004 327.527 722.643C327.918 719.281 323.113 713.568 318.53 716.041C313.947 718.515 282.843 746.762 281.121 755.711Z" stroke="#DE5E06" stroke-opacity="0.24" stroke-width="1.93204"/>
<path d="M370.407 634.016C380.412 628.615 396.74 640.569 393.8 651.179C390.861 661.789 355.881 686.827 352.792 688.208C349.702 689.589 342.81 686.721 343.794 681.607C344.778 676.493 362.387 638.345 370.407 634.016Z" stroke="#DE5E06" stroke-opacity="0.24" stroke-width="1.93204"/>
<path d="M340.671 624.244C334.296 614.83 314.292 617.882 311.994 628.649C309.695 639.416 329.139 677.789 331.24 680.441C333.341 683.094 340.778 683.737 342.27 678.747C343.761 673.757 345.782 631.79 340.671 624.244Z" stroke="#DE5E06" stroke-opacity="0.24" stroke-width="1.93204"/>
<path d="M363.588 773.43C360.333 784.323 340.334 787.416 334.911 777.835C329.487 768.254 336.517 725.815 337.725 722.654C338.933 719.493 345.834 716.647 348.755 720.959C351.675 725.272 366.198 764.698 363.588 773.43Z" stroke="#DE5E06" stroke-opacity="0.24" stroke-width="1.93204"/>
<path d="M261.618 700.134C252.204 706.509 255.256 726.514 266.023 728.812C276.79 731.11 315.163 711.666 317.815 709.565C320.468 707.464 321.111 700.027 316.121 698.535C311.131 697.044 269.164 695.024 261.618 700.134Z" stroke="#DE5E06" stroke-opacity="0.24" stroke-width="1.93204"/>
<path d="M410.804 677.218C421.698 680.474 424.79 700.472 415.209 705.896C405.629 711.319 363.189 704.29 360.028 703.082C356.867 701.874 354.022 694.972 358.334 692.052C362.646 689.131 402.072 674.608 410.804 677.218Z" stroke="#DE5E06" stroke-opacity="0.24" stroke-width="1.93204"/>
<circle cx="528.032" cy="307.032" r="93.7039" transform="rotate(-53.733 528.032 307.032)" stroke="#DE5E06" stroke-opacity="0.24" stroke-width="5.79612"/>
<path d="M474.357 251.149C463.192 249.001 451.205 265.304 457.194 274.542C463.182 283.781 504.064 297.166 507.425 297.556C510.787 297.946 516.501 293.142 514.027 288.559C511.553 283.975 483.306 252.872 474.357 251.149Z" stroke="#DE5E06" stroke-opacity="0.24" stroke-width="1.93204"/>
<path d="M596.052 340.435C601.452 350.44 589.498 366.768 578.888 363.828C568.279 360.889 543.24 325.909 541.859 322.82C540.478 319.73 543.346 312.838 548.461 313.822C553.575 314.806 591.723 332.415 596.052 340.435Z" stroke="#DE5E06" stroke-opacity="0.24" stroke-width="1.93204"/>
<path d="M472.121 360.711C469.972 371.876 486.275 383.863 495.514 377.875C504.752 371.886 518.137 331.004 518.527 327.643C518.918 324.281 514.113 318.568 509.53 321.041C504.947 323.515 473.843 351.762 472.121 360.711Z" stroke="#DE5E06" stroke-opacity="0.24" stroke-width="1.93204"/>
<path d="M561.407 239.016C571.412 233.615 587.74 245.569 584.8 256.179C581.861 266.789 546.881 291.827 543.792 293.208C540.702 294.589 533.81 291.721 534.794 286.607C535.778 281.493 553.387 243.345 561.407 239.016Z" stroke="#DE5E06" stroke-opacity="0.24" stroke-width="1.93204"/>
<path d="M531.671 229.244C525.296 219.83 505.292 222.882 502.994 233.649C500.695 244.416 520.139 282.789 522.24 285.441C524.341 288.094 531.778 288.737 533.27 283.747C534.761 278.757 536.782 236.79 531.671 229.244Z" stroke="#DE5E06" stroke-opacity="0.24" stroke-width="1.93204"/>
<path d="M554.588 378.43C551.333 389.323 531.334 392.416 525.911 382.835C520.487 373.254 527.517 330.815 528.725 327.654C529.933 324.493 536.834 321.647 539.755 325.959C542.675 330.272 557.198 369.698 554.588 378.43Z" stroke="#DE5E06" stroke-opacity="0.24" stroke-width="1.93204"/>
<path d="M452.618 305.134C443.204 311.509 446.256 331.514 457.023 333.812C467.79 336.11 506.163 316.666 508.815 314.565C511.468 312.464 512.111 305.027 507.121 303.535C502.131 302.044 460.164 300.024 452.618 305.134Z" stroke="#DE5E06" stroke-opacity="0.24" stroke-width="1.93204"/>
<path d="M601.804 282.218C612.698 285.474 615.79 305.472 606.209 310.896C596.629 316.319 554.189 309.29 551.028 308.082C547.867 306.874 545.022 299.972 549.334 297.052C553.646 294.131 593.072 279.608 601.804 282.218Z" stroke="#DE5E06" stroke-opacity="0.24" stroke-width="1.93204"/>
<circle cx="750.032" cy="371.032" r="93.7039" transform="rotate(-53.733 750.032 371.032)" stroke="#DE5E06" stroke-opacity="0.24" stroke-width="5.79612"/>
<path d="M696.357 315.149C685.192 313.001 673.205 329.304 679.194 338.542C685.182 347.781 726.064 361.166 729.426 361.556C732.787 361.946 738.501 357.142 736.027 352.559C733.553 347.975 705.306 316.872 696.357 315.149Z" stroke="#DE5E06" stroke-opacity="0.24" stroke-width="1.93204"/>
<path d="M818.052 404.435C823.452 414.44 811.498 430.768 800.889 427.828C790.279 424.889 765.24 389.909 763.859 386.82C762.478 383.73 765.346 376.838 770.461 377.822C775.575 378.806 813.723 396.415 818.052 404.435Z" stroke="#DE5E06" stroke-opacity="0.24" stroke-width="1.93204"/>
<path d="M694.121 424.711C691.972 435.876 708.275 447.863 717.514 441.875C726.752 435.886 740.137 395.004 740.527 391.643C740.918 388.281 736.113 382.568 731.53 385.041C726.947 387.515 695.843 415.762 694.121 424.711Z" stroke="#DE5E06" stroke-opacity="0.24" stroke-width="1.93204"/>
<path d="M783.407 303.016C793.412 297.615 809.74 309.569 806.8 320.179C803.861 330.789 768.881 355.827 765.791 357.208C762.702 358.589 755.81 355.721 756.794 350.607C757.778 345.493 775.387 307.345 783.407 303.016Z" stroke="#DE5E06" stroke-opacity="0.24" stroke-width="1.93204"/>
<path d="M753.671 293.244C747.296 283.83 727.292 286.882 724.994 297.649C722.695 308.416 742.139 346.789 744.24 349.441C746.341 352.094 753.778 352.737 755.27 347.747C756.761 342.757 758.782 300.79 753.671 293.244Z" stroke="#DE5E06" stroke-opacity="0.24" stroke-width="1.93204"/>
<path d="M776.588 442.43C773.333 453.323 753.334 456.416 747.911 446.835C742.487 437.254 749.517 394.815 750.725 391.654C751.933 388.493 758.834 385.647 761.755 389.959C764.675 394.272 779.198 433.698 776.588 442.43Z" stroke="#DE5E06" stroke-opacity="0.24" stroke-width="1.93204"/>
<path d="M674.618 369.134C665.204 375.509 668.256 395.514 679.023 397.812C689.79 400.11 728.163 380.666 730.815 378.565C733.468 376.464 734.111 369.027 729.121 367.535C724.131 366.044 682.164 364.024 674.618 369.134Z" stroke="#DE5E06" stroke-opacity="0.24" stroke-width="1.93204"/>
<path d="M823.804 346.218C834.698 349.474 837.79 369.472 828.209 374.896C818.628 380.319 776.189 373.29 773.028 372.082C769.867 370.874 767.022 363.972 771.334 361.052C775.646 358.131 815.072 343.608 823.804 346.218Z" stroke="#DE5E06" stroke-opacity="0.24" stroke-width="1.93204"/>
<circle cx="1363.03" cy="517.035" r="93.7039" transform="rotate(-53.733 1363.03 517.035)" stroke="#DE5E06" stroke-opacity="0.24" stroke-width="5.79612"/>
<path d="M1309.36 461.152C1298.19 459.004 1286.21 475.307 1292.19 484.546C1298.18 493.784 1339.06 507.169 1342.43 507.559C1345.79 507.949 1351.5 503.145 1349.03 498.562C1346.55 493.979 1318.31 462.875 1309.36 461.152Z" stroke="#DE5E06" stroke-opacity="0.24" stroke-width="1.93204"/>
<path d="M1431.05 550.438C1436.45 560.444 1424.5 576.771 1413.89 573.832C1403.28 570.892 1378.24 535.912 1376.86 532.823C1375.48 529.734 1378.35 522.841 1383.46 523.825C1388.57 524.809 1426.72 542.419 1431.05 550.438Z" stroke="#DE5E06" stroke-opacity="0.24" stroke-width="1.93204"/>
<path d="M1307.12 570.715C1304.97 581.879 1321.28 593.866 1330.51 587.878C1339.75 581.889 1353.14 541.007 1353.53 537.646C1353.92 534.284 1349.11 528.571 1344.53 531.045C1339.95 533.518 1308.84 561.765 1307.12 570.715Z" stroke="#DE5E06" stroke-opacity="0.24" stroke-width="1.93204"/>
<path d="M1396.41 449.019C1406.41 443.618 1422.74 455.573 1419.8 466.182C1416.86 476.792 1381.88 501.83 1378.79 503.211C1375.7 504.592 1368.81 501.724 1369.79 496.61C1370.78 491.496 1388.39 453.348 1396.41 449.019Z" stroke="#DE5E06" stroke-opacity="0.24" stroke-width="1.93204"/>
<path d="M1366.67 439.247C1360.3 429.833 1340.29 432.885 1337.99 443.652C1335.7 454.419 1355.14 492.792 1357.24 495.445C1359.34 498.097 1366.78 498.74 1368.27 493.75C1369.76 488.76 1371.78 446.793 1366.67 439.247Z" stroke="#DE5E06" stroke-opacity="0.24" stroke-width="1.93204"/>
<path d="M1389.59 588.433C1386.33 599.326 1366.33 602.419 1360.91 592.838C1355.49 583.257 1362.52 540.818 1363.72 537.657C1364.93 534.496 1371.83 531.651 1374.75 535.963C1377.68 540.275 1392.2 579.701 1389.59 588.433Z" stroke="#DE5E06" stroke-opacity="0.24" stroke-width="1.93204"/>
<path d="M1287.62 515.137C1278.2 521.512 1281.26 541.517 1292.02 543.815C1302.79 546.113 1341.16 526.67 1343.82 524.569C1346.47 522.468 1347.11 515.03 1342.12 513.539C1337.13 512.047 1295.16 510.027 1287.62 515.137Z" stroke="#DE5E06" stroke-opacity="0.24" stroke-width="1.93204"/>
<path d="M1436.8 492.221C1447.7 495.477 1450.79 515.475 1441.21 520.899C1431.63 526.323 1389.19 519.293 1386.03 518.085C1382.87 516.877 1380.02 509.975 1384.33 507.055C1388.65 504.134 1428.07 489.611 1436.8 492.221Z" stroke="#DE5E06" stroke-opacity="0.24" stroke-width="1.93204"/>
<circle cx="1203.03" cy="963.032" r="93.7039" transform="rotate(-53.733 1203.03 963.032)" stroke="#DE5E06" stroke-opacity="0.24" stroke-width="5.79612"/>
<path d="M1149.36 907.149C1138.19 905.001 1126.21 921.304 1132.19 930.542C1138.18 939.781 1179.06 953.166 1182.43 953.556C1185.79 953.946 1191.5 949.142 1189.03 944.559C1186.55 939.975 1158.31 908.872 1149.36 907.149Z" stroke="#DE5E06" stroke-opacity="0.24" stroke-width="1.93204"/>
<path d="M1271.05 996.435C1276.45 1006.44 1264.5 1022.77 1253.89 1019.83C1243.28 1016.89 1218.24 981.909 1216.86 978.82C1215.48 975.73 1218.35 968.838 1223.46 969.822C1228.57 970.806 1266.72 988.415 1271.05 996.435Z" stroke="#DE5E06" stroke-opacity="0.24" stroke-width="1.93204"/>
<path d="M1147.12 1016.71C1144.97 1027.88 1161.28 1039.86 1170.51 1033.87C1179.75 1027.89 1193.14 987.004 1193.53 983.643C1193.92 980.281 1189.11 974.568 1184.53 977.041C1179.95 979.515 1148.84 1007.76 1147.12 1016.71Z" stroke="#DE5E06" stroke-opacity="0.24" stroke-width="1.93204"/>
<path d="M1236.41 895.016C1246.41 889.615 1262.74 901.569 1259.8 912.179C1256.86 922.789 1221.88 947.827 1218.79 949.208C1215.7 950.589 1208.81 947.721 1209.79 942.607C1210.78 937.493 1228.39 899.345 1236.41 895.016Z" stroke="#DE5E06" stroke-opacity="0.24" stroke-width="1.93204"/>
<path d="M1206.67 885.244C1200.3 875.83 1180.29 878.882 1177.99 889.649C1175.7 900.416 1195.14 938.789 1197.24 941.441C1199.34 944.094 1206.78 944.737 1208.27 939.747C1209.76 934.757 1211.78 892.79 1206.67 885.244Z" stroke="#DE5E06" stroke-opacity="0.24" stroke-width="1.93204"/>
<path d="M1229.59 1034.43C1226.33 1045.32 1206.33 1048.42 1200.91 1038.83C1195.49 1029.25 1202.52 986.815 1203.72 983.654C1204.93 980.493 1211.83 977.647 1214.75 981.959C1217.68 986.272 1232.2 1025.7 1229.59 1034.43Z" stroke="#DE5E06" stroke-opacity="0.24" stroke-width="1.93204"/>
<path d="M1127.62 961.134C1118.2 967.509 1121.26 987.514 1132.02 989.812C1142.79 992.11 1181.16 972.666 1183.82 970.565C1186.47 968.464 1187.11 961.027 1182.12 959.535C1177.13 958.044 1135.16 956.024 1127.62 961.134Z" stroke="#DE5E06" stroke-opacity="0.24" stroke-width="1.93204"/>
<path d="M1276.8 938.218C1287.7 941.474 1290.79 961.472 1281.21 966.896C1271.63 972.319 1229.19 965.29 1226.03 964.082C1222.87 962.874 1220.02 955.972 1224.33 953.052C1228.65 950.131 1268.07 935.608 1276.8 938.218Z" stroke="#DE5E06" stroke-opacity="0.24" stroke-width="1.93204"/>
<circle cx="879.032" cy="936.032" r="93.7039" transform="rotate(-53.733 879.032 936.032)" stroke="#DE5E06" stroke-opacity="0.24" stroke-width="5.79612"/>
<path d="M825.357 880.149C814.192 878.001 802.205 894.304 808.194 903.542C814.182 912.781 855.064 926.166 858.426 926.556C861.787 926.946 867.501 922.142 865.027 917.559C862.553 912.975 834.306 881.872 825.357 880.149Z" stroke="#DE5E06" stroke-opacity="0.24" stroke-width="1.93204"/>
<path d="M947.052 969.435C952.452 979.44 940.498 995.768 929.889 992.828C919.279 989.889 894.24 954.909 892.859 951.82C891.478 948.73 894.346 941.838 899.461 942.822C904.575 943.806 942.723 961.415 947.052 969.435Z" stroke="#DE5E06" stroke-opacity="0.24" stroke-width="1.93204"/>
<path d="M823.121 989.711C820.972 1000.88 837.275 1012.86 846.514 1006.87C855.752 1000.89 869.137 960.004 869.527 956.643C869.918 953.281 865.113 947.568 860.53 950.041C855.947 952.515 824.843 980.762 823.121 989.711Z" stroke="#DE5E06" stroke-opacity="0.24" stroke-width="1.93204"/>
<path d="M912.407 868.016C922.412 862.615 938.74 874.569 935.8 885.179C932.861 895.789 897.881 920.827 894.791 922.208C891.702 923.589 884.81 920.721 885.794 915.607C886.778 910.493 904.387 872.345 912.407 868.016Z" stroke="#DE5E06" stroke-opacity="0.24" stroke-width="1.93204"/>
<path d="M882.671 858.244C876.296 848.83 856.292 851.882 853.994 862.649C851.695 873.416 871.139 911.789 873.24 914.441C875.341 917.094 882.778 917.737 884.27 912.747C885.761 907.757 887.782 865.79 882.671 858.244Z" stroke="#DE5E06" stroke-opacity="0.24" stroke-width="1.93204"/>
<path d="M905.588 1007.43C902.333 1018.32 882.334 1021.42 876.911 1011.83C871.487 1002.25 878.517 959.815 879.725 956.654C880.933 953.493 887.834 950.647 890.755 954.959C893.675 959.272 908.198 998.698 905.588 1007.43Z" stroke="#DE5E06" stroke-opacity="0.24" stroke-width="1.93204"/>
<path d="M803.618 934.134C794.204 940.509 797.256 960.514 808.023 962.812C818.79 965.11 857.163 945.666 859.815 943.565C862.468 941.464 863.111 934.027 858.121 932.535C853.131 931.044 811.164 929.024 803.618 934.134Z" stroke="#DE5E06" stroke-opacity="0.24" stroke-width="1.93204"/>
<path d="M952.804 911.218C963.698 914.474 966.79 934.472 957.209 939.896C947.628 945.319 905.189 938.29 902.028 937.082C898.867 935.874 896.022 928.972 900.334 926.052C904.646 923.131 944.072 908.608 952.804 911.218Z" stroke="#DE5E06" stroke-opacity="0.24" stroke-width="1.93204"/>
<circle cx="5.03194" cy="225.032" r="93.7039" transform="rotate(-53.733 5.03194 225.032)" stroke="#DE5E06" stroke-opacity="0.24" stroke-width="5.79612"/>
<path d="M73.0517 258.435C78.4524 268.44 66.4982 284.768 55.8885 281.828C45.2787 278.889 20.2403 243.909 18.8593 240.82C17.4783 237.73 20.3464 230.838 25.4607 231.822C30.5749 232.806 68.7227 250.415 73.0517 258.435Z" stroke="#DE5E06" stroke-opacity="0.24" stroke-width="1.93204"/>
<path d="M-50.8793 278.711C-53.0281 289.876 -36.7245 301.863 -27.4862 295.875C-18.2478 289.886 -4.86261 249.004 -4.47255 245.643C-4.08249 242.281 -8.88699 236.568 -13.4701 239.041C-18.0531 241.515 -49.157 269.762 -50.8793 278.711Z" stroke="#DE5E06" stroke-opacity="0.24" stroke-width="1.93204"/>
<path d="M38.407 157.016C48.4121 151.615 64.7396 163.569 61.8001 174.179C58.8606 184.789 23.8809 209.827 20.7915 211.208C17.7021 212.589 10.8099 209.721 11.794 204.607C12.778 199.493 30.3871 161.345 38.407 157.016Z" stroke="#DE5E06" stroke-opacity="0.24" stroke-width="1.93204"/>
<path d="M8.67123 147.244C2.29589 137.83 -17.7084 140.882 -20.0065 151.649C-22.3045 162.416 -2.86134 200.789 -0.760262 203.441C1.34082 206.094 8.77823 206.737 10.2698 201.747C11.7614 196.757 13.7816 154.79 8.67123 147.244Z" stroke="#DE5E06" stroke-opacity="0.24" stroke-width="1.93204"/>
<path d="M31.5883 296.43C28.3325 307.323 8.33432 310.416 2.91063 300.835C-2.51305 291.254 4.51651 248.815 5.72453 245.654C6.93256 242.493 13.8341 239.647 16.7546 243.959C19.6751 248.272 34.1982 287.698 31.5883 296.43Z" stroke="#DE5E06" stroke-opacity="0.24" stroke-width="1.93204"/>
<path d="M78.8042 200.218C89.6977 203.474 92.7901 223.472 83.2094 228.896C73.6286 234.319 31.1893 227.29 28.0283 226.082C24.8673 224.874 22.0218 217.972 26.3339 215.052C30.6461 212.131 70.0722 197.608 78.8042 200.218Z" stroke="#DE5E06" stroke-opacity="0.24" stroke-width="1.93204"/>
<circle cx="207.032" cy="406.032" r="93.7039" transform="rotate(-53.733 207.032 406.032)" stroke="#DE5E06" stroke-opacity="0.24" stroke-width="5.79612"/>
<path d="M153.357 350.149C142.192 348.001 130.205 364.304 136.194 373.542C142.182 382.781 183.064 396.166 186.425 396.556C189.787 396.946 195.501 392.142 193.027 387.559C190.553 382.975 162.306 351.872 153.357 350.149Z" stroke="#DE5E06" stroke-opacity="0.24" stroke-width="1.93204"/>
<path d="M275.052 439.435C280.452 449.44 268.498 465.768 257.888 462.828C247.279 459.889 222.24 424.909 220.859 421.82C219.478 418.73 222.346 411.838 227.461 412.822C232.575 413.806 270.723 431.415 275.052 439.435Z" stroke="#DE5E06" stroke-opacity="0.24" stroke-width="1.93204"/>
<path d="M151.121 459.711C148.972 470.876 165.275 482.863 174.514 476.875C183.752 470.886 197.137 430.004 197.527 426.643C197.918 423.281 193.113 417.568 188.53 420.041C183.947 422.515 152.843 450.762 151.121 459.711Z" stroke="#DE5E06" stroke-opacity="0.24" stroke-width="1.93204"/>
<path d="M240.407 338.016C250.412 332.615 266.74 344.569 263.8 355.179C260.861 365.789 225.881 390.827 222.792 392.208C219.702 393.589 212.81 390.721 213.794 385.607C214.778 380.493 232.387 342.345 240.407 338.016Z" stroke="#DE5E06" stroke-opacity="0.24" stroke-width="1.93204"/>
<path d="M210.671 328.244C204.296 318.83 184.292 321.882 181.994 332.649C179.695 343.416 199.139 381.789 201.24 384.441C203.341 387.094 210.778 387.737 212.27 382.747C213.761 377.757 215.782 335.79 210.671 328.244Z" stroke="#DE5E06" stroke-opacity="0.24" stroke-width="1.93204"/>
<path d="M233.588 477.43C230.333 488.323 210.334 491.416 204.911 481.835C199.487 472.254 206.517 429.815 207.725 426.654C208.933 423.493 215.834 420.647 218.755 424.959C221.675 429.272 236.198 468.698 233.588 477.43Z" stroke="#DE5E06" stroke-opacity="0.24" stroke-width="1.93204"/>
<path d="M131.618 404.134C122.204 410.509 125.256 430.514 136.023 432.812C146.79 435.11 185.163 415.666 187.815 413.565C190.468 411.464 191.111 404.027 186.121 402.535C181.131 401.044 139.164 399.024 131.618 404.134Z" stroke="#DE5E06" stroke-opacity="0.24" stroke-width="1.93204"/>
<path d="M280.804 381.218C291.698 384.474 294.79 404.472 285.209 409.896C275.629 415.319 233.189 408.29 230.028 407.082C226.867 405.874 224.022 398.972 228.334 396.052C232.646 393.131 272.072 378.608 280.804 381.218Z" stroke="#DE5E06" stroke-opacity="0.24" stroke-width="1.93204"/>
<circle cx="330.032" cy="2.032" r="93.7039" transform="rotate(-53.733 330.032 2.032)" stroke="#DE5E06" stroke-opacity="0.24" stroke-width="5.79612"/>
<path d="M276.357 -53.8508C265.192 -55.9995 253.205 -39.6959 259.194 -30.4576C265.182 -21.2193 306.064 -7.83404 309.425 -7.44398C312.787 -7.05393 318.501 -11.8584 316.027 -16.4415C313.553 -21.0246 285.306 -52.1284 276.357 -53.8508Z" stroke="#DE5E06" stroke-opacity="0.24" stroke-width="1.93204"/>
<path d="M398.052 35.4352C403.452 45.4404 391.498 61.7679 380.888 58.8284C370.279 55.8889 345.24 20.9091 343.859 17.8198C342.478 14.7304 345.346 7.83819 350.461 8.82225C355.575 9.80631 393.723 27.4154 398.052 35.4352Z" stroke="#DE5E06" stroke-opacity="0.24" stroke-width="1.93204"/>
<path d="M274.121 55.7113C271.972 66.8761 288.275 78.863 297.514 72.8746C306.752 66.8862 320.137 26.0041 320.527 22.6427C320.918 19.2813 316.113 13.5677 311.53 16.0413C306.947 18.515 275.843 46.7619 274.121 55.7113Z" stroke="#DE5E06" stroke-opacity="0.24" stroke-width="1.93204"/>
<path d="M356.588 73.4297C353.333 84.3232 333.334 87.4157 327.911 77.8349C322.487 68.2541 329.517 25.8148 330.725 22.6538C331.933 19.4928 338.834 16.6473 341.755 20.9595C344.675 25.2716 359.198 64.6977 356.588 73.4297Z" stroke="#DE5E06" stroke-opacity="0.24" stroke-width="1.93204"/>
<path d="M254.618 0.133915C245.204 6.50926 248.256 26.5136 259.023 28.8116C269.79 31.1097 308.163 11.6665 310.815 9.56541C313.468 7.46433 314.111 0.0269133 309.121 -1.46466C304.131 -2.95623 262.164 -4.97641 254.618 0.133915Z" stroke="#DE5E06" stroke-opacity="0.24" stroke-width="1.93204"/>
<path d="M403.804 -22.782C414.698 -19.5261 417.79 0.472046 408.209 5.89573C398.629 11.3194 356.189 4.28986 353.028 3.08183C349.867 1.8738 347.022 -5.02777 351.334 -7.94823C355.646 -10.8687 395.072 -25.3918 403.804 -22.782Z" stroke="#DE5E06" stroke-opacity="0.24" stroke-width="1.93204"/>
<circle cx="1388.03" cy="133.032" r="93.7039" transform="rotate(-53.733 1388.03 133.032)" stroke="#DE5E06" stroke-opacity="0.24" stroke-width="5.79612"/>
<path d="M1334.36 77.1492C1323.19 75.0005 1311.21 91.3041 1317.19 100.542C1323.18 109.781 1364.06 123.166 1367.43 123.556C1370.79 123.946 1376.5 119.142 1374.03 114.559C1371.55 109.975 1343.31 78.8716 1334.36 77.1492Z" stroke="#DE5E06" stroke-opacity="0.24" stroke-width="1.93204"/>
<path d="M1456.05 166.435C1461.45 176.44 1449.5 192.768 1438.89 189.828C1428.28 186.889 1403.24 151.909 1401.86 148.82C1400.48 145.73 1403.35 138.838 1408.46 139.822C1413.57 140.806 1451.72 158.415 1456.05 166.435Z" stroke="#DE5E06" stroke-opacity="0.24" stroke-width="1.93204"/>
<path d="M1332.12 186.711C1329.97 197.876 1346.28 209.863 1355.51 203.875C1364.75 197.886 1378.14 157.004 1378.53 153.643C1378.92 150.281 1374.11 144.568 1369.53 147.041C1364.95 149.515 1333.84 177.762 1332.12 186.711Z" stroke="#DE5E06" stroke-opacity="0.24" stroke-width="1.93204"/>
<path d="M1421.41 65.0159C1431.41 59.6152 1447.74 71.5694 1444.8 82.1791C1441.86 92.7889 1406.88 117.827 1403.79 119.208C1400.7 120.589 1393.81 117.721 1394.79 112.607C1395.78 107.493 1413.39 69.3449 1421.41 65.0159Z" stroke="#DE5E06" stroke-opacity="0.24" stroke-width="1.93204"/>
<path d="M1391.67 55.2438C1385.3 45.8297 1365.29 48.8821 1362.99 59.649C1360.7 70.4159 1380.14 108.789 1382.24 111.441C1384.34 114.094 1391.78 114.737 1393.27 109.747C1394.76 104.757 1396.78 62.7899 1391.67 55.2438Z" stroke="#DE5E06" stroke-opacity="0.24" stroke-width="1.93204"/>
<path d="M1414.59 204.43C1411.33 215.323 1391.33 218.416 1385.91 208.835C1380.49 199.254 1387.52 156.815 1388.72 153.654C1389.93 150.493 1396.83 147.647 1399.75 151.959C1402.68 156.272 1417.2 195.698 1414.59 204.43Z" stroke="#DE5E06" stroke-opacity="0.24" stroke-width="1.93204"/>
<path d="M1312.62 131.134C1303.2 137.509 1306.26 157.514 1317.02 159.812C1327.79 162.11 1366.16 142.666 1368.82 140.565C1371.47 138.464 1372.11 131.027 1367.12 129.535C1362.13 128.044 1320.16 126.024 1312.62 131.134Z" stroke="#DE5E06" stroke-opacity="0.24" stroke-width="1.93204"/>
<path d="M1461.8 108.218C1472.7 111.474 1475.79 131.472 1466.21 136.896C1456.63 142.319 1414.19 135.29 1411.03 134.082C1407.87 132.874 1405.02 125.972 1409.33 123.052C1413.65 120.131 1453.07 105.608 1461.8 108.218Z" stroke="#DE5E06" stroke-opacity="0.24" stroke-width="1.93204"/>
<circle cx="1159.03" cy="568.032" r="93.7039" transform="rotate(-53.733 1159.03 568.032)" stroke="#DE5E06" stroke-opacity="0.24" stroke-width="5.79612"/>
<path d="M1105.36 512.149C1094.19 510.001 1082.21 526.304 1088.19 535.542C1094.18 544.781 1135.06 558.166 1138.43 558.556C1141.79 558.946 1147.5 554.142 1145.03 549.559C1142.55 544.975 1114.31 513.872 1105.36 512.149Z" stroke="#DE5E06" stroke-opacity="0.24" stroke-width="1.93204"/>
<path d="M1227.05 601.435C1232.45 611.44 1220.5 627.768 1209.89 624.828C1199.28 621.889 1174.24 586.909 1172.86 583.82C1171.48 580.73 1174.35 573.838 1179.46 574.822C1184.57 575.806 1222.72 593.415 1227.05 601.435Z" stroke="#DE5E06" stroke-opacity="0.24" stroke-width="1.93204"/>
<path d="M1103.12 621.711C1100.97 632.876 1117.28 644.863 1126.51 638.875C1135.75 632.886 1149.14 592.004 1149.53 588.643C1149.92 585.281 1145.11 579.568 1140.53 582.041C1135.95 584.515 1104.84 612.762 1103.12 621.711Z" stroke="#DE5E06" stroke-opacity="0.24" stroke-width="1.93204"/>
<path d="M1192.41 500.016C1202.41 494.615 1218.74 506.569 1215.8 517.179C1212.86 527.789 1177.88 552.827 1174.79 554.208C1171.7 555.589 1164.81 552.721 1165.79 547.607C1166.78 542.493 1184.39 504.345 1192.41 500.016Z" stroke="#DE5E06" stroke-opacity="0.24" stroke-width="1.93204"/>
<path d="M1162.67 490.244C1156.3 480.83 1136.29 483.882 1133.99 494.649C1131.7 505.416 1151.14 543.789 1153.24 546.441C1155.34 549.094 1162.78 549.737 1164.27 544.747C1165.76 539.757 1167.78 497.79 1162.67 490.244Z" stroke="#DE5E06" stroke-opacity="0.24" stroke-width="1.93204"/>
<path d="M1185.59 639.43C1182.33 650.323 1162.33 653.416 1156.91 643.835C1151.49 634.254 1158.52 591.815 1159.72 588.654C1160.93 585.493 1167.83 582.647 1170.75 586.959C1173.68 591.272 1188.2 630.698 1185.59 639.43Z" stroke="#DE5E06" stroke-opacity="0.24" stroke-width="1.93204"/>
<path d="M1083.62 566.134C1074.2 572.509 1077.26 592.514 1088.02 594.812C1098.79 597.11 1137.16 577.666 1139.82 575.565C1142.47 573.464 1143.11 566.027 1138.12 564.535C1133.13 563.044 1091.16 561.024 1083.62 566.134Z" stroke="#DE5E06" stroke-opacity="0.24" stroke-width="1.93204"/>
<path d="M1232.8 543.218C1243.7 546.474 1246.79 566.472 1237.21 571.896C1227.63 577.319 1185.19 570.29 1182.03 569.082C1178.87 567.874 1176.02 560.972 1180.33 558.052C1184.65 555.131 1224.07 540.608 1232.8 543.218Z" stroke="#DE5E06" stroke-opacity="0.24" stroke-width="1.93204"/>
<circle cx="470.032" cy="945.032" r="93.7039" transform="rotate(-53.733 470.032 945.032)" stroke="#DE5E06" stroke-opacity="0.24" stroke-width="5.79612"/>
<path d="M416.357 889.149C405.192 887.001 393.205 903.304 399.194 912.542C405.182 921.781 446.064 935.166 449.425 935.556C452.787 935.946 458.501 931.142 456.027 926.559C453.553 921.975 425.306 890.872 416.357 889.149Z" stroke="#DE5E06" stroke-opacity="0.24" stroke-width="1.93204"/>
<path d="M538.052 978.435C543.452 988.44 531.498 1004.77 520.888 1001.83C510.279 998.889 485.24 963.909 483.859 960.82C482.478 957.73 485.346 950.838 490.461 951.822C495.575 952.806 533.723 970.415 538.052 978.435Z" stroke="#DE5E06" stroke-opacity="0.24" stroke-width="1.93204"/>
<path d="M414.121 998.711C411.972 1009.88 428.275 1021.86 437.514 1015.87C446.752 1009.89 460.137 969.004 460.527 965.643C460.918 962.281 456.113 956.568 451.53 959.041C446.947 961.515 415.843 989.762 414.121 998.711Z" stroke="#DE5E06" stroke-opacity="0.24" stroke-width="1.93204"/>
<path d="M503.407 877.016C513.412 871.615 529.74 883.569 526.8 894.179C523.861 904.789 488.881 929.827 485.792 931.208C482.702 932.589 475.81 929.721 476.794 924.607C477.778 919.493 495.387 881.345 503.407 877.016Z" stroke="#DE5E06" stroke-opacity="0.24" stroke-width="1.93204"/>
<path d="M473.671 867.244C467.296 857.83 447.292 860.882 444.994 871.649C442.695 882.416 462.139 920.789 464.24 923.441C466.341 926.094 473.778 926.737 475.27 921.747C476.761 916.757 478.782 874.79 473.671 867.244Z" stroke="#DE5E06" stroke-opacity="0.24" stroke-width="1.93204"/>
<path d="M496.588 1016.43C493.333 1027.32 473.334 1030.42 467.911 1020.83C462.487 1011.25 469.517 968.815 470.725 965.654C471.933 962.493 478.834 959.647 481.755 963.959C484.675 968.272 499.198 1007.7 496.588 1016.43Z" stroke="#DE5E06" stroke-opacity="0.24" stroke-width="1.93204"/>
<path d="M394.618 943.134C385.204 949.509 388.256 969.514 399.023 971.812C409.79 974.11 448.163 954.666 450.815 952.565C453.468 950.464 454.111 943.027 449.121 941.535C444.131 940.044 402.164 938.024 394.618 943.134Z" stroke="#DE5E06" stroke-opacity="0.24" stroke-width="1.93204"/>
<path d="M543.804 920.218C554.698 923.474 557.79 943.472 548.209 948.896C538.629 954.319 496.189 947.29 493.028 946.082C489.867 944.874 487.022 937.972 491.334 935.052C495.646 932.131 535.072 917.608 543.804 920.218Z" stroke="#DE5E06" stroke-opacity="0.24" stroke-width="1.93204"/>
<circle cx="409.032" cy="495.032" r="93.7039" transform="rotate(-53.733 409.032 495.032)" stroke="#DE5E06" stroke-opacity="0.24" stroke-width="5.79612"/>
<path d="M355.357 439.149C344.192 437.001 332.205 453.304 338.194 462.542C344.182 471.781 385.064 485.166 388.425 485.556C391.787 485.946 397.501 481.142 395.027 476.559C392.553 471.975 364.306 440.872 355.357 439.149Z" stroke="#DE5E06" stroke-opacity="0.24" stroke-width="1.93204"/>
<path d="M477.052 528.435C482.452 538.44 470.498 554.768 459.888 551.828C449.279 548.889 424.24 513.909 422.859 510.82C421.478 507.73 424.346 500.838 429.461 501.822C434.575 502.806 472.723 520.415 477.052 528.435Z" stroke="#DE5E06" stroke-opacity="0.24" stroke-width="1.93204"/>
<path d="M353.121 548.711C350.972 559.876 367.275 571.863 376.514 565.875C385.752 559.886 399.137 519.004 399.527 515.643C399.918 512.281 395.113 506.568 390.53 509.041C385.947 511.515 354.843 539.762 353.121 548.711Z" stroke="#DE5E06" stroke-opacity="0.24" stroke-width="1.93204"/>
<path d="M442.407 427.016C452.412 421.615 468.74 433.569 465.8 444.179C462.861 454.789 427.881 479.827 424.792 481.208C421.702 482.589 414.81 479.721 415.794 474.607C416.778 469.493 434.387 431.345 442.407 427.016Z" stroke="#DE5E06" stroke-opacity="0.24" stroke-width="1.93204"/>
<path d="M412.671 417.244C406.296 407.83 386.292 410.882 383.994 421.649C381.695 432.416 401.139 470.789 403.24 473.441C405.341 476.094 412.778 476.737 414.27 471.747C415.761 466.757 417.782 424.79 412.671 417.244Z" stroke="#DE5E06" stroke-opacity="0.24" stroke-width="1.93204"/>
<path d="M435.588 566.43C432.333 577.323 412.334 580.416 406.911 570.835C401.487 561.254 408.517 518.815 409.725 515.654C410.933 512.493 417.834 509.647 420.755 513.959C423.675 518.272 438.198 557.698 435.588 566.43Z" stroke="#DE5E06" stroke-opacity="0.24" stroke-width="1.93204"/>
<path d="M333.618 493.134C324.204 499.509 327.256 519.514 338.023 521.812C348.79 524.11 387.163 504.666 389.815 502.565C392.468 500.464 393.111 493.027 388.121 491.535C383.131 490.044 341.164 488.024 333.618 493.134Z" stroke="#DE5E06" stroke-opacity="0.24" stroke-width="1.93204"/>
<path d="M482.804 470.218C493.698 473.474 496.79 493.472 487.209 498.896C477.629 504.319 435.189 497.29 432.028 496.082C428.867 494.874 426.022 487.972 430.334 485.052C434.646 482.131 474.072 467.608 482.804 470.218Z" stroke="#DE5E06" stroke-opacity="0.24" stroke-width="1.93204"/>
<circle cx="29.0319" cy="703.032" r="93.7039" transform="rotate(-53.733 29.0319 703.032)" stroke="#DE5E06" stroke-opacity="0.24" stroke-width="5.79612"/>
<path d="M-24.6431 647.149C-35.8079 645.001 -47.7948 661.304 -41.8064 670.542C-35.818 679.781 5.06407 693.166 8.42551 693.556C11.7869 693.946 17.5005 689.142 15.0269 684.559C12.5532 679.975 -15.6937 648.872 -24.6431 647.149Z" stroke="#DE5E06" stroke-opacity="0.24" stroke-width="1.93204"/>
<path d="M97.0517 736.435C102.452 746.44 90.4982 762.768 79.8885 759.828C69.2787 756.889 44.2403 721.909 42.8593 718.82C41.4783 715.73 44.3464 708.838 49.4607 709.822C54.5749 710.806 92.7227 728.415 97.0517 736.435Z" stroke="#DE5E06" stroke-opacity="0.24" stroke-width="1.93204"/>
<path d="M-26.8793 756.711C-29.0281 767.876 -12.7245 779.863 -3.48617 773.875C5.75216 767.886 19.1374 727.004 19.5275 723.643C19.9175 720.281 15.113 714.568 10.5299 717.041C5.94687 719.515 -25.157 747.762 -26.8793 756.711Z" stroke="#DE5E06" stroke-opacity="0.24" stroke-width="1.93204"/>
<path d="M62.407 635.016C72.4121 629.615 88.7396 641.569 85.8001 652.179C82.8606 662.789 47.8809 687.827 44.7915 689.208C41.7021 690.589 34.8099 687.721 35.794 682.607C36.778 677.493 54.3871 639.345 62.407 635.016Z" stroke="#DE5E06" stroke-opacity="0.24" stroke-width="1.93204"/>
<path d="M32.6712 625.244C26.2959 615.83 6.29157 618.882 3.99352 629.649C1.69547 640.416 21.1387 678.789 23.2397 681.441C25.3408 684.094 32.7782 684.737 34.2698 679.747C35.7614 674.757 37.7816 632.79 32.6712 625.244Z" stroke="#DE5E06" stroke-opacity="0.24" stroke-width="1.93204"/>
<path d="M55.5883 774.43C52.3325 785.323 32.3343 788.416 26.9106 778.835C21.4869 769.254 28.5165 726.815 29.7245 723.654C30.9326 720.493 37.8341 717.647 40.7546 721.959C43.6751 726.272 58.1982 765.698 55.5883 774.43Z" stroke="#DE5E06" stroke-opacity="0.24" stroke-width="1.93204"/>
<path d="M-46.3822 701.134C-55.7962 707.509 -52.7439 727.514 -41.9769 729.812C-31.21 732.11 7.16275 712.666 9.81546 710.565C12.4682 708.464 13.111 701.027 8.12112 699.535C3.13125 698.044 -38.8361 696.024 -46.3822 701.134Z" stroke="#DE5E06" stroke-opacity="0.24" stroke-width="1.93204"/>
<path d="M102.804 678.218C113.698 681.474 116.79 701.472 107.209 706.896C97.6286 712.319 55.1893 705.29 52.0283 704.082C48.8673 702.874 46.0218 695.972 50.3339 693.052C54.6461 690.131 94.0722 675.608 102.804 678.218Z" stroke="#DE5E06" stroke-opacity="0.24" stroke-width="1.93204"/>
<circle cx="75.0319" cy="-85.968" r="93.7039" transform="rotate(-53.733 75.0319 -85.968)" stroke="#DE5E06" stroke-opacity="0.24" stroke-width="5.79612"/>
<circle cx="299.032" cy="216.032" r="93.7039" transform="rotate(-53.733 299.032 216.032)" stroke="#DE5E06" stroke-opacity="0.24" stroke-width="5.79612"/>
<path d="M245.357 160.149C234.192 158.001 222.205 174.304 228.194 183.542C234.182 192.781 275.064 206.166 278.425 206.556C281.787 206.946 287.501 202.142 285.027 197.559C282.553 192.975 254.306 161.872 245.357 160.149Z" stroke="#DE5E06" stroke-opacity="0.24" stroke-width="1.93204"/>
<path d="M367.052 249.435C372.452 259.44 360.498 275.768 349.888 272.828C339.279 269.889 314.24 234.909 312.859 231.82C311.478 228.73 314.346 221.838 319.461 222.822C324.575 223.806 362.723 241.415 367.052 249.435Z" stroke="#DE5E06" stroke-opacity="0.24" stroke-width="1.93204"/>
<path d="M243.121 269.711C240.972 280.876 257.275 292.863 266.514 286.875C275.752 280.886 289.137 240.004 289.527 236.643C289.918 233.281 285.113 227.568 280.53 230.041C275.947 232.515 244.843 260.762 243.121 269.711Z" stroke="#DE5E06" stroke-opacity="0.24" stroke-width="1.93204"/>
<path d="M332.407 148.016C342.412 142.615 358.74 154.569 355.8 165.179C352.861 175.789 317.881 200.827 314.792 202.208C311.702 203.589 304.81 200.721 305.794 195.607C306.778 190.493 324.387 152.345 332.407 148.016Z" stroke="#DE5E06" stroke-opacity="0.24" stroke-width="1.93204"/>
<path d="M302.671 138.244C296.296 128.83 276.292 131.882 273.994 142.649C271.695 153.416 291.139 191.789 293.24 194.441C295.341 197.094 302.778 197.737 304.27 192.747C305.761 187.757 307.782 145.79 302.671 138.244Z" stroke="#DE5E06" stroke-opacity="0.24" stroke-width="1.93204"/>
<path d="M325.588 287.43C322.333 298.323 302.334 301.416 296.911 291.835C291.487 282.254 298.517 239.815 299.725 236.654C300.933 233.493 307.834 230.647 310.755 234.959C313.675 239.272 328.198 278.698 325.588 287.43Z" stroke="#DE5E06" stroke-opacity="0.24" stroke-width="1.93204"/>
<path d="M223.618 214.134C214.204 220.509 217.256 240.514 228.023 242.812C238.79 245.11 277.163 225.666 279.815 223.565C282.468 221.464 283.111 214.027 278.121 212.535C273.131 211.044 231.164 209.024 223.618 214.134Z" stroke="#DE5E06" stroke-opacity="0.24" stroke-width="1.93204"/>
<path d="M372.804 191.218C383.698 194.474 386.79 214.472 377.209 219.896C367.629 225.319 325.189 218.29 322.028 217.082C318.867 215.874 316.022 208.972 320.334 206.052C324.646 203.131 364.072 188.608 372.804 191.218Z" stroke="#DE5E06" stroke-opacity="0.24" stroke-width="1.93204"/>
<circle cx="250.032" cy="912.032" r="93.7039" transform="rotate(-53.733 250.032 912.032)" stroke="#DE5E06" stroke-opacity="0.24" stroke-width="5.79612"/>
<path d="M196.357 856.149C185.192 854.001 173.205 870.304 179.194 879.542C185.182 888.781 226.064 902.166 229.425 902.556C232.787 902.946 238.501 898.142 236.027 893.559C233.553 888.975 205.306 857.872 196.357 856.149Z" stroke="#DE5E06" stroke-opacity="0.24" stroke-width="1.93204"/>
<path d="M318.052 945.435C323.452 955.44 311.498 971.768 300.888 968.828C290.279 965.889 265.24 930.909 263.859 927.82C262.478 924.73 265.346 917.838 270.461 918.822C275.575 919.806 313.723 937.415 318.052 945.435Z" stroke="#DE5E06" stroke-opacity="0.24" stroke-width="1.93204"/>
<path d="M194.121 965.711C191.972 976.876 208.275 988.863 217.514 982.875C226.752 976.886 240.137 936.004 240.527 932.643C240.918 929.281 236.113 923.568 231.53 926.041C226.947 928.515 195.843 956.762 194.121 965.711Z" stroke="#DE5E06" stroke-opacity="0.24" stroke-width="1.93204"/>
<path d="M283.407 844.016C293.412 838.615 309.74 850.569 306.8 861.179C303.861 871.789 268.881 896.827 265.792 898.208C262.702 899.589 255.81 896.721 256.794 891.607C257.778 886.493 275.387 848.345 283.407 844.016Z" stroke="#DE5E06" stroke-opacity="0.24" stroke-width="1.93204"/>
<path d="M253.671 834.244C247.296 824.83 227.292 827.882 224.994 838.649C222.695 849.416 242.139 887.789 244.24 890.441C246.341 893.094 253.778 893.737 255.27 888.747C256.761 883.757 258.782 841.79 253.671 834.244Z" stroke="#DE5E06" stroke-opacity="0.24" stroke-width="1.93204"/>
<path d="M276.588 983.43C273.333 994.323 253.334 997.416 247.911 987.835C242.487 978.254 249.517 935.815 250.725 932.654C251.933 929.493 258.834 926.647 261.755 930.959C264.675 935.272 279.198 974.698 276.588 983.43Z" stroke="#DE5E06" stroke-opacity="0.24" stroke-width="1.93204"/>
<path d="M174.618 910.134C165.204 916.509 168.256 936.514 179.023 938.812C189.79 941.11 228.163 921.666 230.815 919.565C233.468 917.464 234.111 910.027 229.121 908.535C224.131 907.044 182.164 905.024 174.618 910.134Z" stroke="#DE5E06" stroke-opacity="0.24" stroke-width="1.93204"/>
<path d="M323.804 887.218C334.698 890.474 337.79 910.472 328.209 915.896C318.629 921.319 276.189 914.29 273.028 913.082C269.867 911.874 267.022 904.972 271.334 902.052C275.646 899.131 315.072 884.608 323.804 887.218Z" stroke="#DE5E06" stroke-opacity="0.24" stroke-width="1.93204"/>
<circle cx="295.032" cy="-92.968" r="93.7039" transform="rotate(-53.733 295.032 -92.968)" stroke="#DE5E06" stroke-opacity="0.24" stroke-width="5.79612"/>
<circle cx="1051.03" cy="-124.968" r="93.7039" transform="rotate(126.267 1051.03 -124.968)" stroke="#DE5E06" stroke-opacity="0.24" stroke-width="5.79612"/>
</g>
<defs>
<clipPath id="clip0">
<rect width="1440" height="1024" fill="white"/>
</clipPath>
</defs>
</svg>
